<?xml version="1.0" encoding="UTF-8"?><svg id="Livello_2" xmlns="http://www.w3.org/2000/svg" viewBox="0 0 274.19 56.57"><defs><style>.cls-1{fill:#008c67;}.cls-2{fill:#fff;}.cls-3{fill:#7c7c7b;}.cls-4{fill:#e30c18;}</style></defs><g id="Livello_1-2"><path class="cls-3" d="m150.63,9.25c10.44,0,18.94,8.52,18.94,18.99s-8.5,18.99-18.94,18.99-18.94-8.52-18.94-18.99,8.5-18.99,18.94-18.99m0-6.34c-13.96,0-25.28,11.34-25.28,25.33s11.32,25.33,25.28,25.33,25.28-11.34,25.28-25.33-11.32-25.33-25.28-25.33h0Z"/><path class="cls-4" d="m150.63,20.93c4.02,0,7.29,3.28,7.29,7.31s-3.27,7.31-7.29,7.31-7.29-3.28-7.29-7.31,3.27-7.31,7.29-7.31m0-5.35c-6.98,0-12.64,5.67-12.64,12.66s5.66,12.66,12.64,12.66,12.64-5.67,12.64-12.66-5.66-12.66-12.64-12.66h0Z"/><path class="cls-3" d="m6.98,32.46v8.9H.65V15.13h10.47c1.57,0,2.99.22,4.25.67,1.26.44,2.33,1.06,3.21,1.86s1.55,1.73,2.02,2.82c.47,1.09.7,2.27.7,3.56s-.23,2.43-.7,3.46c-.47,1.03-1.14,1.92-2.02,2.66s-1.95,1.31-3.21,1.71c-1.26.4-2.68.6-4.25.6h-4.15Zm0-4.88h4.15c.66,0,1.23-.09,1.7-.26.47-.17.86-.42,1.17-.73.31-.31.53-.68.68-1.12s.22-.9.22-1.41c0-.54-.07-1.05-.22-1.54-.14-.49-.37-.92-.68-1.29-.31-.37-.7-.67-1.17-.89-.47-.22-1.04-.33-1.7-.33h-4.15v7.57Z"/><path class="cls-3" d="m41.01,41.36h-6.31V15.13h6.31v26.24Z"/><path class="cls-3" d="m71.27,30.25h-9.95v6.25h11.75v4.87h-18.08V15.13h18.11v4.88h-11.79v5.53h9.95v4.7Z"/><path class="cls-3" d="m93.56,15.13l5.86,18.26,5.84-18.26h8.33v26.24h-6.34v-6.13l.61-12.54-6.34,18.67h-4.18l-6.36-18.69.61,12.56v6.13h-6.33V15.13h8.31Z"/><path class="cls-3" d="m210.14,41.36h-6.29l-9.3-16.33v16.33h-6.33V15.13h6.33l9.28,16.33V15.13h6.31v26.24Z"/><path class="cls-3" d="m243.82,20.01h-7.88v21.36h-6.33v-21.36h-7.73v-4.88h21.93v4.88Z"/><path class="cls-3" d="m272.35,30.25h-9.95v6.25h11.75v4.87h-18.08V15.13h18.11v4.88h-11.79v5.53h9.95v4.7Z"/><path class="cls-4" d="m4.88,51.74h-1.75v4.75h-1.41v-4.75H0v-1.09h4.88v1.09Z"/><path class="cls-4" d="m10.76,56.49h-1.4v-2.44h-2.07v2.44h-1.41v-5.84h1.41v2.32h2.07v-2.32h1.4v5.84Z"/><path class="cls-4" d="m15.68,54.01h-2.21v1.39h2.61v1.08h-4.02v-5.84h4.03v1.09h-2.62v1.23h2.21v1.04Z"/><path class="cls-4" d="m20.92,54.51v1.98h-1.41v-5.84h2.33c.45,0,.84.08,1.18.25.34.17.61.4.8.7.19.3.28.65.28,1.03,0,.57-.2,1.02-.61,1.36-.41.34-.97.51-1.68.51h-.9Zm0-1.09h.92c.27,0,.48-.07.62-.2.14-.14.21-.33.21-.58,0-.27-.07-.49-.22-.65s-.35-.25-.6-.25h-.94v1.68Z"/><path class="cls-4" d="m26.68,55.41h2.45v1.08h-3.86v-5.84h1.41v4.75Z"/><path class="cls-4" d="m33.52,55.4h-1.93l-.34,1.09h-1.5l2.14-5.84h1.32l2.16,5.84h-1.51l-.34-1.09Zm-1.59-1.09h1.25l-.63-2.02-.62,2.02Z"/><path class="cls-4" d="m40.85,54.51c-.02.41-.13.76-.33,1.08-.2.31-.48.55-.84.72-.36.17-.78.26-1.24.26-.77,0-1.37-.25-1.81-.75-.44-.5-.66-1.21-.66-2.12v-.29c0-.57.1-1.07.3-1.5s.49-.76.86-.99c.37-.23.81-.35,1.3-.35.71,0,1.28.19,1.71.56.43.37.67.89.73,1.54h-1.4c-.01-.36-.1-.61-.27-.77-.17-.16-.42-.23-.77-.23s-.61.13-.77.39-.25.68-.26,1.25v.41c0,.62.08,1.07.23,1.33s.43.4.81.4c.32,0,.57-.08.74-.23.17-.15.26-.39.27-.72h1.4Z"/><path class="cls-4" d="m45.54,54.01h-2.21v1.39h2.61v1.08h-4.02v-5.84h4.03v1.09h-2.62v1.23h2.21v1.04Z"/><path class="cls-4" d="m53.72,51.74h-1.75v4.75h-1.41v-4.75h-1.72v-1.09h4.88v1.09Z"/><path class="cls-4" d="m59.55,53.69c0,.57-.11,1.07-.32,1.51-.21.44-.51.78-.9,1.01s-.83.35-1.33.35-.94-.11-1.32-.34-.69-.55-.9-.98c-.22-.42-.33-.91-.34-1.46v-.33c0-.57.1-1.08.31-1.51.21-.44.51-.77.9-1.01.39-.24.84-.36,1.34-.36s.94.12,1.32.35c.39.24.69.57.9,1,.22.43.32.93.33,1.49v.27Zm-1.43-.24c0-.58-.1-1.02-.29-1.32-.19-.3-.47-.45-.83-.45-.71,0-1.08.53-1.12,1.59v.43c0,.57.09,1.01.28,1.32.19.31.47.46.85.46s.63-.15.82-.45.29-.74.29-1.3v-.27Z"/><path class="cls-4" d="m66.76,54.01h-2.21v1.39h2.61v1.08h-4.02v-5.84h4.03v1.09h-2.62v1.23h2.21v1.04Z"/><path class="cls-4" d="m70.32,52.59l.95-1.94h1.61l-1.63,2.89,1.68,2.94h-1.62l-.98-1.98-.98,1.98h-1.62l1.67-2.94-1.63-2.89h1.6l.95,1.94Z"/><path class="cls-4" d="m75.2,54.51v1.98h-1.41v-5.84h2.33c.45,0,.84.08,1.18.25.34.17.61.4.8.7.19.3.28.65.28,1.03,0,.57-.2,1.02-.61,1.36-.41.34-.97.51-1.68.51h-.9Zm0-1.09h.92c.27,0,.48-.07.62-.2.14-.14.21-.33.21-.58,0-.27-.07-.49-.22-.65s-.35-.25-.6-.25h-.94v1.68Z"/><path class="cls-4" d="m83.17,54.01h-2.21v1.39h2.61v1.08h-4.02v-5.84h4.03v1.09h-2.62v1.23h2.21v1.04Z"/><path class="cls-4" d="m86.72,54.43h-.76v2.06h-1.41v-5.84h2.3c.69,0,1.23.15,1.62.46.39.31.59.74.59,1.3,0,.41-.08.74-.25,1.01-.16.27-.42.48-.77.65l1.22,2.36v.06h-1.51l-1.03-2.06Zm-.76-1.08h.89c.27,0,.47-.07.6-.21s.2-.34.2-.59-.07-.45-.2-.59c-.14-.14-.34-.21-.6-.21h-.89v1.61Z"/><path class="cls-4" d="m91.82,56.49h-1.4v-5.84h1.4v5.84Z"/><path class="cls-4" d="m96.83,54.01h-2.21v1.39h2.61v1.08h-4.02v-5.84h4.03v1.09h-2.62v1.23h2.21v1.04Z"/><path class="cls-4" d="m103.08,56.49h-1.4l-2.07-3.63v3.63h-1.41v-5.84h1.41l2.06,3.63v-3.63h1.4v5.84Z"/><path class="cls-4" d="m109.11,54.51c-.02.41-.13.76-.33,1.08-.2.31-.48.55-.84.72-.36.17-.78.26-1.24.26-.77,0-1.37-.25-1.81-.75-.44-.5-.66-1.21-.66-2.12v-.29c0-.57.1-1.07.3-1.5s.49-.76.86-.99c.37-.23.81-.35,1.3-.35.71,0,1.28.19,1.71.56.43.37.67.89.73,1.54h-1.4c-.01-.36-.1-.61-.27-.77-.17-.16-.42-.23-.77-.23s-.61.13-.77.39-.25.68-.26,1.25v.41c0,.62.08,1.07.23,1.33s.43.4.81.4c.32,0,.57-.08.74-.23.17-.15.26-.39.27-.72h1.4Z"/><path class="cls-4" d="m113.8,54.01h-2.21v1.39h2.61v1.08h-4.02v-5.84h4.03v1.09h-2.62v1.23h2.21v1.04Z"/><path class="cls-4" d="m253.34,5.84h-1.4V0h1.4v5.84Z"/><path class="cls-4" d="m259.2,1.09h-1.75v4.75h-1.41V1.09h-1.72V0h4.88v1.09Z"/><path class="cls-4" d="m263.03,4.75h-1.93l-.34,1.09h-1.5L261.41,0h1.32l2.16,5.84h-1.51l-.34-1.09Zm-1.59-1.09h1.25l-.63-2.02-.62,2.02Z"/><path class="cls-4" d="m267.13,4.75h2.45v1.08h-3.86V0h1.41v4.75Z"/><path class="cls-4" d="m271.6,2.53L272.67,0h1.52l-1.88,3.74v2.1h-1.43v-2.1L269.01,0h1.51l1.08,2.53Z"/><rect class="cls-4" x="225.29" width="18.53" height="5.84"/><rect class="cls-2" x="206.76" width="18.53" height="5.84"/><rect class="cls-1" x="188.23" width="18.53" height="5.84"/></g></svg>