<?xml version="1.0" encoding="UTF-8"?><svg id="Livello_2" xmlns="http://www.w3.org/2000/svg" viewBox="0 0 274.19 56.57"><defs><style>.cls-1{fill:#008c67;}.cls-2{fill:#fff;}.cls-3{fill:#e30c18;}</style></defs><g id="Livello_1-2"><path class="cls-3" d="m150.63,20.93c4.02,0,7.29,3.28,7.29,7.31s-3.27,7.31-7.29,7.31-7.29-3.28-7.29-7.31,3.27-7.31,7.29-7.31m0-5.35c-6.98,0-12.64,5.67-12.64,12.66s5.66,12.66,12.64,12.66,12.64-5.67,12.64-12.66-5.66-12.66-12.64-12.66h0Z"/><path d="m150.63,2.92c-13.96,0-25.28,11.34-25.28,25.33s11.32,25.33,25.28,25.33,25.28-11.34,25.28-25.33-11.32-25.33-25.28-25.33Zm0,44.32c-10.44,0-18.94-8.52-18.94-18.99s8.5-18.99,18.94-18.99,18.94,8.52,18.94,18.99-8.5,18.99-18.94,18.99Z"/><path d="m18.58,17.65c-.88-.79-1.95-1.41-3.21-1.86-1.26-.44-2.68-.67-4.25-.67H.65v26.24h6.33v-8.9h4.15c1.57,0,2.99-.2,4.25-.6,1.26-.4,2.33-.97,3.21-1.71.88-.74,1.55-1.62,2.02-2.66.47-1.03.7-2.19.7-3.46s-.23-2.47-.7-3.56c-.47-1.09-1.14-2.03-2.02-2.82Zm-3.91,7.82c-.14.43-.37.8-.68,1.12-.31.31-.7.56-1.17.73-.47.17-1.04.26-1.7.26h-4.15v-7.57h4.15c.66,0,1.23.11,1.7.33.47.22.86.52,1.17.89.31.37.53.8.68,1.29.14.49.22,1,.22,1.54,0,.5-.07.97-.22,1.41Z"/><rect x="34.7" y="15.13" width="6.31" height="26.24"/><polygon points="55 41.36 73.08 41.36 73.08 36.5 61.33 36.5 61.33 30.25 71.27 30.25 71.27 25.54 61.33 25.54 61.33 20.01 73.11 20.01 73.11 15.13 55 15.13 55 41.36"/><polygon points="99.41 33.38 93.56 15.13 85.25 15.13 85.25 41.36 91.57 41.36 91.57 35.24 90.96 22.68 97.32 41.36 101.5 41.36 107.85 22.69 107.24 35.24 107.24 41.36 113.58 41.36 113.58 15.13 105.25 15.13 99.41 33.38"/><polygon points="203.84 31.45 194.56 15.13 188.23 15.13 188.23 41.36 194.56 41.36 194.56 25.04 203.86 41.36 210.14 41.36 210.14 15.13 203.84 15.13 203.84 31.45"/><polygon points="221.88 20.01 229.62 20.01 229.62 41.36 235.94 41.36 235.94 20.01 243.82 20.01 243.82 15.13 221.88 15.13 221.88 20.01"/><polygon points="274.19 20.01 274.19 15.13 256.08 15.13 256.08 41.36 274.16 41.36 274.16 36.5 262.41 36.5 262.41 30.25 272.35 30.25 272.35 25.54 262.41 25.54 262.41 20.01 274.19 20.01"/><path class="cls-3" d="m4.88,51.74h-1.75v4.75h-1.41v-4.75H0v-1.09h4.88v1.09Z"/><path class="cls-3" d="m10.76,56.49h-1.4v-2.44h-2.07v2.44h-1.41v-5.84h1.41v2.32h2.07v-2.32h1.4v5.84Z"/><path class="cls-3" d="m15.68,54.01h-2.21v1.39h2.61v1.08h-4.02v-5.84h4.03v1.09h-2.62v1.23h2.21v1.04Z"/><path class="cls-3" d="m20.92,54.51v1.98h-1.41v-5.84h2.33c.45,0,.84.08,1.18.25.34.17.61.4.8.7.19.3.28.65.28,1.03,0,.57-.2,1.02-.61,1.36-.41.34-.97.51-1.68.51h-.9Zm0-1.09h.92c.27,0,.48-.07.62-.2.14-.14.21-.33.21-.58,0-.27-.07-.49-.22-.65s-.35-.25-.6-.25h-.94v1.68Z"/><path class="cls-3" d="m26.68,55.41h2.45v1.08h-3.86v-5.84h1.41v4.75Z"/><path class="cls-3" d="m33.52,55.4h-1.93l-.34,1.09h-1.5l2.14-5.84h1.32l2.16,5.84h-1.51l-.34-1.09Zm-1.59-1.09h1.25l-.63-2.02-.62,2.02Z"/><path class="cls-3" d="m40.85,54.51c-.02.41-.13.76-.33,1.08-.2.31-.48.55-.84.72-.36.17-.78.26-1.24.26-.77,0-1.37-.25-1.81-.75-.44-.5-.66-1.21-.66-2.12v-.29c0-.57.1-1.07.3-1.5s.49-.76.86-.99c.37-.23.81-.35,1.3-.35.71,0,1.28.19,1.71.56.43.37.67.89.73,1.54h-1.4c-.01-.36-.1-.61-.27-.77-.17-.16-.42-.23-.77-.23s-.61.13-.77.39-.25.68-.26,1.25v.41c0,.62.08,1.07.23,1.33s.43.4.81.4c.32,0,.57-.08.74-.23.17-.15.26-.39.27-.72h1.4Z"/><path class="cls-3" d="m45.54,54.01h-2.21v1.39h2.61v1.08h-4.02v-5.84h4.03v1.09h-2.62v1.23h2.21v1.04Z"/><path class="cls-3" d="m53.72,51.74h-1.75v4.75h-1.41v-4.75h-1.72v-1.09h4.88v1.09Z"/><path class="cls-3" d="m59.55,53.69c0,.57-.11,1.07-.32,1.51-.21.44-.51.78-.9,1.01s-.83.35-1.33.35-.94-.11-1.32-.34-.69-.55-.9-.98c-.22-.42-.33-.91-.34-1.46v-.33c0-.57.1-1.08.31-1.51.21-.44.51-.77.9-1.01.39-.24.84-.36,1.34-.36s.94.12,1.32.35c.39.24.69.57.9,1,.22.43.32.93.33,1.49v.27Zm-1.43-.24c0-.58-.1-1.02-.29-1.32-.19-.3-.47-.45-.83-.45-.71,0-1.08.53-1.12,1.59v.43c0,.57.09,1.01.28,1.32.19.31.47.46.85.46s.63-.15.82-.45.29-.74.29-1.3v-.27Z"/><path class="cls-3" d="m66.76,54.01h-2.21v1.39h2.61v1.08h-4.02v-5.84h4.03v1.09h-2.62v1.23h2.21v1.04Z"/><path class="cls-3" d="m70.32,52.59l.95-1.94h1.61l-1.63,2.89,1.68,2.94h-1.62l-.98-1.98-.98,1.98h-1.62l1.67-2.94-1.63-2.89h1.6l.95,1.94Z"/><path class="cls-3" d="m75.2,54.51v1.98h-1.41v-5.84h2.33c.45,0,.84.08,1.18.25.34.17.61.4.8.7.19.3.28.65.28,1.03,0,.57-.2,1.02-.61,1.36-.41.34-.97.51-1.68.51h-.9Zm0-1.09h.92c.27,0,.48-.07.62-.2.14-.14.21-.33.21-.58,0-.27-.07-.49-.22-.65s-.35-.25-.6-.25h-.94v1.68Z"/><path class="cls-3" d="m83.17,54.01h-2.21v1.39h2.61v1.08h-4.02v-5.84h4.03v1.09h-2.62v1.23h2.21v1.04Z"/><path class="cls-3" d="m86.72,54.43h-.76v2.06h-1.41v-5.84h2.3c.69,0,1.23.15,1.62.46.39.31.59.74.59,1.3,0,.41-.08.74-.25,1.01-.16.27-.42.48-.77.65l1.22,2.36v.06h-1.51l-1.03-2.06Zm-.76-1.08h.89c.27,0,.47-.07.6-.21s.2-.34.2-.59-.07-.45-.2-.59c-.14-.14-.34-.21-.6-.21h-.89v1.61Z"/><path class="cls-3" d="m91.82,56.49h-1.4v-5.84h1.4v5.84Z"/><path class="cls-3" d="m96.83,54.01h-2.21v1.39h2.61v1.08h-4.02v-5.84h4.03v1.09h-2.62v1.23h2.21v1.04Z"/><path class="cls-3" d="m103.08,56.49h-1.4l-2.07-3.63v3.63h-1.41v-5.84h1.41l2.06,3.63v-3.63h1.4v5.84Z"/><path class="cls-3" d="m109.11,54.51c-.02.41-.13.76-.33,1.08-.2.31-.48.55-.84.72-.36.17-.78.26-1.24.26-.77,0-1.37-.25-1.81-.75-.44-.5-.66-1.21-.66-2.12v-.29c0-.57.1-1.07.3-1.5s.49-.76.86-.99c.37-.23.81-.35,1.3-.35.71,0,1.28.19,1.71.56.43.37.67.89.73,1.54h-1.4c-.01-.36-.1-.61-.27-.77-.17-.16-.42-.23-.77-.23s-.61.13-.77.39-.25.68-.26,1.25v.41c0,.62.08,1.07.23,1.33s.43.4.81.4c.32,0,.57-.08.74-.23.17-.15.26-.39.27-.72h1.4Z"/><path class="cls-3" d="m113.8,54.01h-2.21v1.39h2.61v1.08h-4.02v-5.84h4.03v1.09h-2.62v1.23h2.21v1.04Z"/><path class="cls-3" d="m253.34,5.84h-1.4V0h1.4v5.84Z"/><path class="cls-3" d="m259.2,1.09h-1.75v4.75h-1.41V1.09h-1.72V0h4.88v1.09Z"/><path class="cls-3" d="m263.03,4.75h-1.93l-.34,1.09h-1.5L261.41,0h1.32l2.16,5.84h-1.51l-.34-1.09Zm-1.59-1.09h1.25l-.63-2.02-.62,2.02Z"/><path class="cls-3" d="m267.13,4.75h2.45v1.08h-3.86V0h1.41v4.75Z"/><path class="cls-3" d="m271.6,2.53L272.67,0h1.52l-1.88,3.74v2.1h-1.43v-2.1L269.01,0h1.51l1.08,2.53Z"/><rect class="cls-3" x="225.29" width="18.53" height="5.84"/><rect class="cls-2" x="206.76" width="18.53" height="5.84"/><rect class="cls-1" x="188.23" width="18.53" height="5.84"/></g></svg>